<svg xmlns="http://www.w3.org/2000/svg" width="820" height="560" viewBox="0 0 820 560" font-family="ui-sans-serif, system-ui, -apple-system, Segoe UI, Roboto, Helvetica, Arial"><rect width="820" height="560" fill="#F8FAFC"/><rect x="0" y="0" width="820" height="52" fill="#0F172A"/><text x="28" y="33" font-size="16" font-weight="700" fill="#fff">NEMS <tspan fill="#2357D7">Insight</tspan></text><text x="640" y="32" font-size="12" fill="rgba(255,255,255,0.6)">info@nems.au</text><text x="730" y="32" font-size="12" fill="rgba(255,255,255,0.6)">Sign out</text><rect x="28" y="80" width="360" height="210" rx="8" fill="#FFFFFF" stroke="#E2E8F0"/><text x="48" y="112" font-size="14" font-weight="700" fill="#0F172A">Modelled cost — Energex 7400</text><text x="48" y="132" font-size="11" fill="#64748B">Network from tariff; retail from this NMI's plan.</text><text x="48" y="158" font-size="12" fill="#0F172A">Network demand (kVA)</text><text x="368" y="158" font-size="12" text-anchor="end" fill="#0F172A">$10,088</text><text x="48" y="180" font-size="12" fill="#0F172A">Retail energy (peak)</text><text x="368" y="180" font-size="12" text-anchor="end" fill="#0F172A">$8,302</text><text x="48" y="202" font-size="12" fill="#0F172A">Environmental</text><text x="368" y="202" font-size="12" text-anchor="end" fill="#0F172A">$2,939</text><line x1="48" y1="232" x2="368" y2="232" stroke="#E2E8F0"/><text x="48" y="252" font-size="13" font-weight="700" fill="#0F172A">Total</text><text x="368" y="252" font-size="13" font-weight="700" fill="#0F172A" text-anchor="end">$42,543</text><rect x="48" y="262" width="150" height="30" rx="6" fill="#2357D7"/><text x="123" y="282" font-size="12" font-weight="600" fill="#fff" text-anchor="middle">Save retail plan</text><rect x="404" y="80" width="388" height="130" rx="8" fill="#FFFFFF" stroke="#E2E8F0"/><text x="424" y="112" font-size="14" font-weight="700" fill="#0F172A">Bill reconciliation</text><text x="424" y="134" font-size="12" fill="#0F172A">Mar · Origin</text><text x="772" y="134" font-size="12" font-weight="700" fill="#059669" text-anchor="end">Matches model</text><text x="424" y="156" font-size="12" fill="#0F172A">Feb · Origin</text><text x="772" y="156" font-size="12" font-weight="700" fill="#D97706" text-anchor="end">Review</text><text x="424" y="178" font-size="12" fill="#0F172A">Dec · Origin</text><text x="772" y="178" font-size="12" font-weight="700" fill="#E11D48" text-anchor="end">Investigate</text><rect x="404" y="226" width="388" height="160" rx="8" fill="#FFFFFF" stroke="#E2E8F0"/><text x="424" y="256" font-size="14" font-weight="700" fill="#0F172A">Load profile</text><rect x="425.0" y="350.0" width="12.5" height="20.0" fill="#2357D7"/><rect x="439.5" y="350.0" width="12.5" height="20.0" fill="#2357D7"/><rect x="454.0" y="350.0" width="12.5" height="20.0" fill="#2357D7"/><rect x="468.5" y="350.0" width="12.5" height="20.0" fill="#2357D7"/><rect x="483.0" y="350.0" width="12.5" height="20.0" fill="#2357D7"/><rect x="497.5" y="350.0" width="12.5" height="20.0" fill="#2357D7"/><rect x="512.0" y="350.0" width="12.5" height="20.0" fill="#2357D7"/><rect x="526.5" y="333.7" width="12.5" height="36.3" fill="#2357D7"/><rect x="541.0" y="327.4" width="12.5" height="42.6" fill="#2357D7"/><rect x="555.5" y="317.9" width="12.5" height="52.1" fill="#2357D7"/><rect x="570.0" y="305.8" width="12.5" height="64.2" fill="#2357D7"/><rect x="584.5" y="293.3" width="12.5" height="76.7" fill="#2357D7"/><rect x="599.0" y="283.6" width="12.5" height="86.4" fill="#2357D7"/><rect x="613.5" y="280.0" width="12.5" height="90.0" fill="#2357D7"/><rect x="628.0" y="283.6" width="12.5" height="86.4" fill="#2357D7"/><rect x="642.5" y="293.3" width="12.5" height="76.7" fill="#2357D7"/><rect x="657.0" y="305.8" width="12.5" height="64.2" fill="#2357D7"/><rect x="671.5" y="317.9" width="12.5" height="52.1" fill="#2357D7"/><rect x="686.0" y="327.4" width="12.5" height="42.6" fill="#2357D7"/><rect x="700.5" y="350.0" width="12.5" height="20.0" fill="#2357D7"/><rect x="715.0" y="350.0" width="12.5" height="20.0" fill="#2357D7"/><rect x="729.5" y="350.0" width="12.5" height="20.0" fill="#2357D7"/><rect x="744.0" y="350.0" width="12.5" height="20.0" fill="#2357D7"/><rect x="758.5" y="350.0" width="12.5" height="20.0" fill="#2357D7"/><rect x="28" y="306" width="360" height="80" rx="8" fill="#FFFFFF" stroke="#E2E8F0"/><text x="48" y="334" font-size="13" font-weight="700" fill="#0F172A">Data quality flags</text><circle cx="54" cy="356" r="5" fill="#059669"/><text x="66" y="360" font-size="10.5" fill="#64748B">A — actual</text><circle cx="162" cy="356" r="5" fill="#D97706"/><text x="174" y="360" font-size="10.5" fill="#64748B">S — substituted</text><circle cx="270" cy="356" r="5" fill="#DC2626"/><text x="282" y="360" font-size="10.5" fill="#64748B">E — estimated</text><rect x="28" y="402" width="764" height="130" rx="8" fill="#FFFFFF" stroke="#E2E8F0"/><text x="48" y="430" font-size="13" font-weight="700" fill="#0F172A">Palette</text><rect x="48" y="446" width="60" height="42" rx="6" fill="#2357D7" stroke="#E2E8F0"/><text x="78" y="504" font-size="9" fill="#64748B" text-anchor="middle">accent</text><text x="78" y="516" font-size="8" fill="#94A3B8" text-anchor="middle">#2357D7</text><rect x="121" y="446" width="60" height="42" rx="6" fill="#1C47B3" stroke="#E2E8F0"/><text x="151" y="504" font-size="9" fill="#64748B" text-anchor="middle">hover</text><text x="151" y="516" font-size="8" fill="#94A3B8" text-anchor="middle">#1C47B3</text><rect x="194" y="446" width="60" height="42" rx="6" fill="#0F172A" stroke="#E2E8F0"/><text x="224" y="504" font-size="9" fill="#64748B" text-anchor="middle">sidebar</text><text x="224" y="516" font-size="8" fill="#94A3B8" text-anchor="middle">#0F172A</text><rect x="267" y="446" width="60" height="42" rx="6" fill="#059669" stroke="#E2E8F0"/><text x="297" y="504" font-size="9" fill="#64748B" text-anchor="middle">good</text><text x="297" y="516" font-size="8" fill="#94A3B8" text-anchor="middle">#059669</text><rect x="340" y="446" width="60" height="42" rx="6" fill="#D97706" stroke="#E2E8F0"/><text x="370" y="504" font-size="9" fill="#64748B" text-anchor="middle">warn</text><text x="370" y="516" font-size="8" fill="#94A3B8" text-anchor="middle">#D97706</text><rect x="413" y="446" width="60" height="42" rx="6" fill="#E11D48" stroke="#E2E8F0"/><text x="443" y="504" font-size="9" fill="#64748B" text-anchor="middle">bad</text><text x="443" y="516" font-size="8" fill="#94A3B8" text-anchor="middle">#E11D48</text><rect x="486" y="446" width="60" height="42" rx="6" fill="#0EA5E9" stroke="#E2E8F0"/><text x="516" y="504" font-size="9" fill="#64748B" text-anchor="middle">sky</text><text x="516" y="516" font-size="8" fill="#94A3B8" text-anchor="middle">#0EA5E9</text><rect x="559" y="446" width="60" height="42" rx="6" fill="#E2E8F0" stroke="#E2E8F0"/><text x="589" y="504" font-size="9" fill="#64748B" text-anchor="middle">border</text><text x="589" y="516" font-size="8" fill="#94A3B8" text-anchor="middle">#E2E8F0</text><rect x="632" y="446" width="60" height="42" rx="6" fill="#64748B" stroke="#E2E8F0"/><text x="662" y="504" font-size="9" fill="#64748B" text-anchor="middle">muted</text><text x="662" y="516" font-size="8" fill="#94A3B8" text-anchor="middle">#64748B</text><rect x="705" y="446" width="60" height="42" rx="6" fill="#94A3B8" stroke="#E2E8F0"/><text x="735" y="504" font-size="9" fill="#64748B" text-anchor="middle">faint</text><text x="735" y="516" font-size="8" fill="#94A3B8" text-anchor="middle">#94A3B8</text></svg>