<svg xmlns="http://www.w3.org/2000/svg" width="760" height="720" viewBox="0 0 760 720" font-family="ui-sans-serif, system-ui, -apple-system, Segoe UI, Roboto, Helvetica, Arial"><rect width="760" height="720" fill="#f4f4f5"/><text x="28" y="34" font-size="18" font-weight="700" fill="#171717">NEMS Insight — Phase 3: metering point analytics</text><g transform="translate(28,54)"><rect width="704" height="648" rx="10" fill="#fff" stroke="#e4e4e7"/><line x1="0" y1="44" x2="704" y2="44" stroke="#ededf0"/><text x="20" y="28" font-size="14" font-weight="700" fill="#171717">NEMS Insight</text><text x="600" y="28" font-size="11" fill="#3f3f46" text-decoration="underline">Sign out</text><text x="20" y="72" font-size="11" fill="#a1a1aa">Clients / Acme Manufacturing Pty Ltd / Acme Brisbane Plant / <tspan fill="#52525b" font-family="ui-monospace, monospace">31000000000</tspan></text><text x="20" y="98" font-size="18" font-weight="700" font-family="ui-monospace, monospace" fill="#171717">31000000000</text><text x="20" y="116" font-size="11" fill="#a1a1aa">17,520 interval readings</text><rect x="20" y="130" width="160" height="78" rx="8" fill="#fff" stroke="#e4e4e7"/><text x="34" y="150" font-size="9" letter-spacing="0.5" fill="#a1a1aa">CONSUMPTION</text><text x="34" y="176" font-size="19" font-weight="700" fill="#171717">11,840 kWh</text><text x="34" y="194" font-size="9" fill="#a1a1aa">net 9,910 kWh · 1,930 exported</text><rect x="191" y="130" width="160" height="78" rx="8" fill="#fff" stroke="#e4e4e7"/><text x="205" y="150" font-size="9" letter-spacing="0.5" fill="#a1a1aa">PEAK DEMAND</text><text x="205" y="176" font-size="19" font-weight="700" fill="#171717">38.6 kW</text><text x="205" y="194" font-size="9" fill="#a1a1aa">max interval</text><rect x="362" y="130" width="160" height="78" rx="8" fill="#fff" stroke="#e4e4e7"/><text x="376" y="150" font-size="9" letter-spacing="0.5" fill="#a1a1aa">AVERAGE DEMAND</text><text x="376" y="176" font-size="19" font-weight="700" fill="#171717">13.5 kW</text><rect x="533" y="130" width="160" height="78" rx="8" fill="#fff" stroke="#e4e4e7"/><text x="547" y="150" font-size="9" letter-spacing="0.5" fill="#a1a1aa">POWER FACTOR</text><text x="547" y="176" font-size="19" font-weight="700" fill="#171717">0.92</text><text x="547" y="194" font-size="9" fill="#a1a1aa">period average</text><rect x="20" y="220" width="664" height="28" rx="6" fill="#fffbeb" stroke="#fcd34d"/><text x="34" y="238" font-size="11" fill="#92400e">4.2% of consumption intervals are estimated or substituted, not actual reads.</text><text x="20" y="278" font-size="13" font-weight="600" fill="#3f3f46">Average daily load profile</text><text x="20" y="294" font-size="10" fill="#a1a1aa">Mean demand (kW) by time of day across the period.</text><rect x="20" y="302" width="664" height="150" rx="6" fill="#fafafa" stroke="#eee"/><rect x="29.6" y="411.4" width="10.3" height="18.6" fill="#171717"/><rect x="43.1" y="406.1" width="10.3" height="23.9" fill="#171717"/><rect x="56.6" y="405.7" width="10.3" height="24.3" fill="#171717"/><rect x="70.1" y="410.5" width="10.3" height="19.5" fill="#171717"/><rect x="83.6" y="416.1" width="10.3" height="13.9" fill="#171717"/><rect x="97.1" y="417.3" width="10.3" height="12.7" fill="#171717"/><rect x="110.6" y="413.1" width="10.3" height="16.9" fill="#171717"/><rect x="124.1" y="407.3" width="10.3" height="22.7" fill="#171717"/><rect x="137.6" y="405.2" width="10.3" height="24.8" fill="#171717"/><rect x="151.1" y="408.8" width="10.3" height="21.2" fill="#171717"/><rect x="164.6" y="414.7" width="10.3" height="15.3" fill="#171717"/><rect x="178.1" y="417.6" width="10.3" height="12.4" fill="#171717"/><rect x="191.6" y="414.7" width="10.3" height="15.3" fill="#171717"/><rect x="205.1" y="408.8" width="10.3" height="21.2" fill="#171717"/><rect x="218.6" y="365.3" width="10.3" height="64.7" fill="#171717"/><rect x="232.1" y="363.9" width="10.3" height="66.1" fill="#171717"/><rect x="245.6" y="362.0" width="10.3" height="68.0" fill="#171717"/><rect x="259.1" y="359.5" width="10.3" height="70.5" fill="#171717"/><rect x="272.6" y="356.2" width="10.3" height="73.8" fill="#171717"/><rect x="286.1" y="352.1" width="10.3" height="77.9" fill="#171717"/><rect x="299.6" y="347.3" width="10.3" height="82.7" fill="#171717"/><rect x="313.1" y="341.9" width="10.3" height="88.1" fill="#171717"/><rect x="326.6" y="336.0" width="10.3" height="94.0" fill="#171717"/><rect x="340.1" y="330.1" width="10.3" height="99.9" fill="#171717"/><rect x="353.6" y="324.4" width="10.3" height="105.6" fill="#171717"/><rect x="367.1" y="319.3" width="10.3" height="110.7" fill="#171717"/><rect x="380.6" y="315.4" width="10.3" height="114.6" fill="#171717"/><rect x="394.1" y="312.9" width="10.3" height="117.1" fill="#171717"/><rect x="407.6" y="312.0" width="10.3" height="118.0" fill="#171717"/><rect x="421.1" y="312.9" width="10.3" height="117.1" fill="#171717"/><rect x="434.6" y="315.4" width="10.3" height="114.6" fill="#171717"/><rect x="448.1" y="319.3" width="10.3" height="110.7" fill="#171717"/><rect x="461.6" y="324.4" width="10.3" height="105.6" fill="#171717"/><rect x="475.1" y="330.1" width="10.3" height="99.9" fill="#171717"/><rect x="488.6" y="336.0" width="10.3" height="94.0" fill="#171717"/><rect x="502.1" y="341.9" width="10.3" height="88.1" fill="#171717"/><rect x="515.6" y="417.5" width="10.3" height="12.5" fill="#171717"/><rect x="529.1" y="415.4" width="10.3" height="14.6" fill="#171717"/><rect x="542.6" y="409.5" width="10.3" height="20.5" fill="#171717"/><rect x="556.1" y="405.4" width="10.3" height="24.6" fill="#171717"/><rect x="569.6" y="406.7" width="10.3" height="23.3" fill="#171717"/><rect x="583.1" y="412.4" width="10.3" height="17.6" fill="#171717"/><rect x="596.6" y="417.1" width="10.3" height="12.9" fill="#171717"/><rect x="610.1" y="416.5" width="10.3" height="13.5" fill="#171717"/><rect x="623.6" y="411.3" width="10.3" height="18.7" fill="#171717"/><rect x="637.1" y="406.1" width="10.3" height="23.9" fill="#171717"/><rect x="650.6" y="405.8" width="10.3" height="24.2" fill="#171717"/><rect x="664.1" y="410.6" width="10.3" height="19.4" fill="#171717"/><text x="38" y="446" font-size="9" fill="#a1a1aa">00:00</text><text x="200" y="446" font-size="9" fill="#a1a1aa">06:00</text><text x="362" y="446" font-size="9" fill="#a1a1aa">12:00</text><text x="524" y="446" font-size="9" fill="#a1a1aa">18:00</text><text x="20" y="486" font-size="13" font-weight="600" fill="#3f3f46">Daily consumption</text><text x="20" y="502" font-size="10" fill="#a1a1aa">Grid import (kWh) per day.</text><rect x="20" y="510" width="664" height="120" rx="6" fill="#fafafa" stroke="#eee"/><rect x="30.5" y="560.0" width="15.9" height="48.0" fill="#171717"/><rect x="51.4" y="554.3" width="15.9" height="53.7" fill="#171717"/><rect x="72.3" y="530.1" width="15.9" height="77.9" fill="#171717"/><rect x="93.2" y="524.0" width="15.9" height="84.0" fill="#171717"/><rect x="114.1" y="523.8" width="15.9" height="84.2" fill="#171717"/><rect x="135.0" y="521.3" width="15.9" height="86.7" fill="#171717"/><rect x="155.9" y="522.2" width="15.9" height="85.8" fill="#171717"/><rect x="176.8" y="547.4" width="15.9" height="60.6" fill="#171717"/><rect x="197.7" y="552.6" width="15.9" height="55.4" fill="#171717"/><rect x="218.6" y="537.0" width="15.9" height="71.0" fill="#171717"/><rect x="239.5" y="542.1" width="15.9" height="65.9" fill="#171717"/><rect x="260.4" y="548.9" width="15.9" height="59.1" fill="#171717"/><rect x="281.3" y="555.1" width="15.9" height="52.9" fill="#171717"/><rect x="302.3" y="557.3" width="15.9" height="50.7" fill="#171717"/><rect x="323.2" y="578.2" width="15.9" height="29.8" fill="#171717"/><rect x="344.1" y="579.0" width="15.9" height="29.0" fill="#171717"/><rect x="365.0" y="556.3" width="15.9" height="51.7" fill="#171717"/><rect x="385.9" y="550.8" width="15.9" height="57.2" fill="#171717"/><rect x="406.8" y="545.5" width="15.9" height="62.5" fill="#171717"/><rect x="427.7" y="539.1" width="15.9" height="68.9" fill="#171717"/><rect x="448.6" y="530.9" width="15.9" height="77.1" fill="#171717"/><rect x="469.5" y="546.7" width="15.9" height="61.3" fill="#171717"/><rect x="490.4" y="545.4" width="15.9" height="62.6" fill="#171717"/><rect x="511.3" y="522.9" width="15.9" height="85.1" fill="#171717"/><rect x="532.2" y="520.0" width="15.9" height="88.0" fill="#171717"/><rect x="553.1" y="523.2" width="15.9" height="84.8" fill="#171717"/><rect x="574.0" y="527.8" width="15.9" height="80.2" fill="#171717"/><rect x="594.9" y="530.3" width="15.9" height="77.7" fill="#171717"/><rect x="615.8" y="558.5" width="15.9" height="49.5" fill="#171717"/><rect x="636.7" y="563.2" width="15.9" height="44.8" fill="#171717"/><rect x="657.6" y="552.4" width="15.9" height="55.6" fill="#171717"/><text x="28" y="622" font-size="9" fill="#a1a1aa">01-01</text><text x="640" y="622" font-size="9" fill="#a1a1aa">01-31</text></g><text x="28" y="714" font-size="10.5" fill="#a1a1aa" font-style="italic">Mockup. All figures computed by the pure analytics core — 12 passing unit tests cover consumption, demand, power factor &amp; load profile.</text></svg>