<svg xmlns="http://www.w3.org/2000/svg" width="820" height="1180" viewBox="0 0 820 1180" font-family="ui-sans-serif, system-ui, -apple-system, Segoe UI, Roboto, Helvetica, Arial"><rect width="820" height="1180" fill="#e9e9ec"/><rect x="40" y="30" width="740" height="1120" rx="6" fill="#ffffff" stroke="#d4d4d8"/><text x="72" y="74" font-size="11" fill="#9ca3af">Energy review — NEMS Insight</text><text x="72" y="98" font-size="22" font-weight="700" fill="#111">Acme Manufacturing Pty Ltd</text><text x="72" y="118" font-size="12" fill="#6b7280">Acme Brisbane Plant · NMI 31000000000 · 2024-07-01 to 2025-06-30</text><rect x="630" y="80" width="118" height="30" rx="5" fill="#111"/><text x="689" y="100" font-size="11" font-weight="600" fill="#fff" text-anchor="middle">Print / Save PDF</text><line x1="72" y1="150" x2="748" y2="150" stroke="#e5e7eb"/><text x="72" y="172" font-size="15" font-weight="700" fill="#111">Summary</text><rect x="72" y="184" width="156" height="60" rx="6" fill="#fff" stroke="#e5e7eb"/><text x="84" y="202" font-size="8.5" letter-spacing="0.5" fill="#9ca3af">ANNUAL COST (MODELLED)</text><text x="84" y="224" font-size="17" font-weight="700" fill="#111">$154,669</text><rect x="240" y="184" width="156" height="60" rx="6" fill="#fff" stroke="#e5e7eb"/><text x="252" y="202" font-size="8.5" letter-spacing="0.5" fill="#9ca3af">CONSUMPTION</text><text x="252" y="224" font-size="17" font-weight="700" fill="#111">827 MWh</text><rect x="408" y="184" width="156" height="60" rx="6" fill="#fff" stroke="#e5e7eb"/><text x="420" y="202" font-size="8.5" letter-spacing="0.5" fill="#9ca3af">PEAK DEMAND</text><text x="420" y="224" font-size="17" font-weight="700" fill="#111">291.8 kW</text><rect x="576" y="184" width="156" height="60" rx="6" fill="#fff" stroke="#e5e7eb"/><text x="588" y="202" font-size="8.5" letter-spacing="0.5" fill="#9ca3af">LOAD FACTOR</text><text x="588" y="224" font-size="17" font-weight="700" fill="#111">0.32</text><text x="72" y="270" font-size="12" font-weight="600" fill="#111">Recommendations</text><circle cx="77" cy="284" r="2" fill="#6b7280"/><text x="88" y="288" font-size="10.5" fill="#374151">Install ~70 kWp solar (sized to minimise export): ~$18,000/yr saving, ~3.9 yr payback.</text><circle cx="77" cy="302" r="2" fill="#6b7280"/><text x="88" y="306" font-size="10.5" fill="#374151">Load factor 0.32 (peaky) — reducing in-window peak demand cuts the $/kW demand charge.</text><circle cx="77" cy="320" r="2" fill="#6b7280"/><text x="88" y="324" font-size="10.5" fill="#374151">Network tariff 7200 is the lowest-cost of the tariffs assessed for this load.</text><line x1="72" y1="460" x2="748" y2="460" stroke="#e5e7eb"/><text x="72" y="482" font-size="15" font-weight="700" fill="#111">Usage profile</text><rect x="72" y="494" width="156" height="60" rx="6" fill="#fff" stroke="#e5e7eb"/><text x="84" y="512" font-size="8.5" letter-spacing="0.5" fill="#9ca3af">AVERAGE DEMAND</text><text x="84" y="534" font-size="17" font-weight="700" fill="#111">94.4 kW</text><rect x="240" y="494" width="156" height="60" rx="6" fill="#fff" stroke="#e5e7eb"/><text x="252" y="512" font-size="8.5" letter-spacing="0.5" fill="#9ca3af">POWER FACTOR</text><text x="252" y="534" font-size="17" font-weight="700" fill="#111">1.00</text><rect x="408" y="494" width="156" height="60" rx="6" fill="#fff" stroke="#e5e7eb"/><text x="420" y="512" font-size="8.5" letter-spacing="0.5" fill="#9ca3af">EXPORT (SOLAR)</text><text x="420" y="534" font-size="17" font-weight="700" fill="#111">0 kWh</text><rect x="576" y="494" width="156" height="60" rx="6" fill="#fff" stroke="#e5e7eb"/><text x="588" y="512" font-size="8.5" letter-spacing="0.5" fill="#9ca3af">ESTIMATED DATA</text><text x="588" y="534" font-size="17" font-weight="700" fill="#111">0.0%</text><text x="72" y="578" font-size="9.5" fill="#9ca3af">Average daily load profile (kW by time of day)</text><rect x="73.0" y="644.7" width="12.1" height="15.3" fill="#111"/><rect x="87.1" y="642.8" width="12.1" height="17.2" fill="#111"/><rect x="101.2" y="642.7" width="12.1" height="17.3" fill="#111"/><rect x="115.3" y="644.4" width="12.1" height="15.6" fill="#111"/><rect x="129.3" y="646.3" width="12.1" height="13.7" fill="#111"/><rect x="143.4" y="646.8" width="12.1" height="13.2" fill="#111"/><rect x="157.5" y="645.3" width="12.1" height="14.7" fill="#111"/><rect x="171.6" y="643.3" width="12.1" height="16.7" fill="#111"/><rect x="185.7" y="642.5" width="12.1" height="17.5" fill="#111"/><rect x="199.8" y="643.8" width="12.1" height="16.2" fill="#111"/><rect x="213.8" y="645.9" width="12.1" height="14.1" fill="#111"/><rect x="227.9" y="646.9" width="12.1" height="13.1" fill="#111"/><rect x="242.0" y="627.5" width="12.1" height="32.5" fill="#111"/><rect x="256.1" y="626.6" width="12.1" height="33.4" fill="#111"/><rect x="270.2" y="625.2" width="12.1" height="34.8" fill="#111"/><rect x="284.3" y="623.4" width="12.1" height="36.6" fill="#111"/><rect x="298.3" y="621.1" width="12.1" height="38.9" fill="#111"/><rect x="312.4" y="618.3" width="12.1" height="41.7" fill="#111"/><rect x="326.5" y="614.9" width="12.1" height="45.1" fill="#111"/><rect x="340.6" y="611.1" width="12.1" height="48.9" fill="#111"/><rect x="354.7" y="606.9" width="12.1" height="53.1" fill="#111"/><rect x="368.8" y="602.7" width="12.1" height="57.3" fill="#111"/><rect x="382.8" y="598.7" width="12.1" height="61.3" fill="#111"/><rect x="396.9" y="595.2" width="12.1" height="64.8" fill="#111"/><rect x="411.0" y="592.4" width="12.1" height="67.6" fill="#111"/><rect x="425.1" y="590.6" width="12.1" height="69.4" fill="#111"/><rect x="439.2" y="590.0" width="12.1" height="70.0" fill="#111"/><rect x="453.3" y="590.6" width="12.1" height="69.4" fill="#111"/><rect x="467.3" y="592.4" width="12.1" height="67.6" fill="#111"/><rect x="481.4" y="595.2" width="12.1" height="64.8" fill="#111"/><rect x="495.5" y="598.7" width="12.1" height="61.3" fill="#111"/><rect x="509.6" y="602.7" width="12.1" height="57.3" fill="#111"/><rect x="523.7" y="606.9" width="12.1" height="53.1" fill="#111"/><rect x="537.8" y="611.1" width="12.1" height="48.9" fill="#111"/><rect x="551.8" y="614.9" width="12.1" height="45.1" fill="#111"/><rect x="565.9" y="618.3" width="12.1" height="41.7" fill="#111"/><rect x="580.0" y="621.1" width="12.1" height="38.9" fill="#111"/><rect x="594.1" y="623.4" width="12.1" height="36.6" fill="#111"/><rect x="608.2" y="644.0" width="12.1" height="16.0" fill="#111"/><rect x="622.3" y="642.6" width="12.1" height="17.4" fill="#111"/><rect x="636.3" y="643.1" width="12.1" height="16.9" fill="#111"/><rect x="650.4" y="645.0" width="12.1" height="15.0" fill="#111"/><rect x="664.5" y="646.7" width="12.1" height="13.3" fill="#111"/><rect x="678.6" y="646.5" width="12.1" height="13.5" fill="#111"/><rect x="692.7" y="644.6" width="12.1" height="15.4" fill="#111"/><rect x="706.8" y="642.8" width="12.1" height="17.2" fill="#111"/><rect x="720.8" y="642.7" width="12.1" height="17.3" fill="#111"/><rect x="734.9" y="644.4" width="12.1" height="15.6" fill="#111"/><text x="72" y="674" font-size="8" fill="#9ca3af">00:00</text><text x="241" y="674" font-size="8" fill="#9ca3af">06:00</text><text x="410" y="674" font-size="8" fill="#9ca3af">12:00</text><text x="579" y="674" font-size="8" fill="#9ca3af">18:00</text><line x1="72" y1="700" x2="748" y2="700" stroke="#e5e7eb"/><text x="72" y="722" font-size="15" font-weight="700" fill="#111">Where the money goes</text><text x="72" y="744" font-size="10.5" fill="#374151">Network demand (peak+shoulder)</text><text x="748" y="744" font-size="10.5" fill="#111" text-anchor="end">$45,940</text><text x="72" y="762" font-size="10.5" fill="#374151">Network energy + fixed</text><text x="748" y="762" font-size="10.5" fill="#111" text-anchor="end">$25,326</text><text x="72" y="780" font-size="10.5" fill="#374151">Retail energy (est.)</text><text x="748" y="780" font-size="10.5" fill="#111" text-anchor="end">$83,001</text><text x="72" y="798" font-size="10.5" fill="#374151">Retail supply + market (est.)</text><text x="748" y="798" font-size="10.5" fill="#111" text-anchor="end">$402</text><line x1="72" y1="804" x2="748" y2="804" stroke="#d4d4d8"/><text x="72" y="820" font-size="11" font-weight="700" fill="#111">Network $71,266 · Retail $83,403</text><text x="748" y="820" font-size="13" font-weight="700" fill="#111" text-anchor="end">$154,669</text><line x1="72" y1="860" x2="748" y2="860" stroke="#e5e7eb"/><text x="72" y="882" font-size="15" font-weight="700" fill="#111">Network tariff check</text><text x="72" y="904" font-size="10.5" fill="#374151">Modelled on Energex 7200 (SAC Large TOU). Lowest-cost of the tariffs assessed for this load.</text><text x="72" y="928" font-size="10.5" font-weight="600" fill="#111">Energex 7200 (current)</text><text x="748" y="928" font-size="10.5" fill="#111" text-anchor="end">$154,669</text><text x="72" y="946" font-size="10.5" fill="#6b7280">Energex 7400 (11kV TOU Demand)</text><text x="748" y="946" font-size="10.5" fill="#6b7280" text-anchor="end">$171,240</text><line x1="72" y1="970" x2="748" y2="970" stroke="#e5e7eb"/><text x="72" y="992" font-size="15" font-weight="700" fill="#111">Solar opportunity</text><rect x="72" y="1004" width="156" height="60" rx="6" fill="#fff" stroke="#e5e7eb"/><text x="84" y="1022" font-size="8.5" letter-spacing="0.5" fill="#9ca3af">RECOMMENDED SIZE</text><text x="84" y="1044" font-size="17" font-weight="700" fill="#111">70 kWp</text><text x="84" y="1057" font-size="8.5" fill="#9ca3af">minimise export</text><rect x="240" y="1004" width="156" height="60" rx="6" fill="#fff" stroke="#e5e7eb"/><text x="252" y="1022" font-size="8.5" letter-spacing="0.5" fill="#9ca3af">ANNUAL GENERATION</text><text x="252" y="1044" font-size="17" font-weight="700" fill="#111">108.5 MWh</text><text x="252" y="1057" font-size="8.5" fill="#9ca3af">92% self-consumed</text><rect x="408" y="1004" width="156" height="60" rx="6" fill="#fff" stroke="#e5e7eb"/><text x="420" y="1022" font-size="8.5" letter-spacing="0.5" fill="#9ca3af">EST. ANNUAL SAVING</text><text x="420" y="1044" font-size="17" font-weight="700" fill="#111">$18,000</text><rect x="576" y="1004" width="156" height="60" rx="6" fill="#fff" stroke="#e5e7eb"/><text x="588" y="1022" font-size="8.5" letter-spacing="0.5" fill="#9ca3af">SIMPLE PAYBACK</text><text x="588" y="1044" font-size="17" font-weight="700" fill="#111">3.9 yrs</text><text x="588" y="1057" font-size="8.5" fill="#9ca3af">~79 t CO₂/yr</text><text x="72" y="1088" font-size="8.5" fill="#9ca3af">Indicative only. ~1,550 kWh/kWp/yr (SE QLD), ~$1.00/W, self-consumed kWh valued at $0.18/kWh, roof/space assumed.</text></svg>