<svg xmlns="http://www.w3.org/2000/svg" width="760" height="860" viewBox="0 0 760 860" font-family="ui-sans-serif, system-ui, -apple-system, Segoe UI, Roboto, Helvetica, Arial"><rect width="760" height="860" fill="#f4f4f5"/><text x="28" y="34" font-size="18" font-weight="700" fill="#171717">NEMS Insight — Phase 4: cost model &amp; reconciliation</text><g transform="translate(28,54)"><rect width="704" height="788" rx="10" fill="#fff" stroke="#e4e4e7"/><line x1="0" y1="44" x2="704" y2="44" stroke="#ededf0"/><text x="20" y="28" font-size="14" font-weight="700" fill="#171717">NEMS Insight</text><text x="600" y="28" font-size="11" fill="#3f3f46" text-decoration="underline">Sign out</text><text x="20" y="70" font-size="11" fill="#a1a1aa">Clients / Acme Manufacturing / Acme Brisbane Plant / <tspan font-family="ui-monospace, monospace" fill="#52525b">6123456789</tspan></text><text x="20" y="100" font-size="14" font-weight="700" fill="#171717">Modelled cost — Energex Large TOU Demand &amp; Energy</text><text x="20" y="117" font-size="10.5" fill="#a1a1aa">Cost computed from interval data over 365 days. Retail charges are estimates.</text><rect x="20" y="132" width="664" height="334" rx="8" fill="#fff" stroke="#e4e4e7"/><text x="36" y="156" font-size="12" fill="#171717">Network fixed charge <tspan font-size="8" fill="#cbd5e1">NETWORK</tspan></text><text x="668" y="156" font-size="12" fill="#171717" text-anchor="end" font-family="ui-monospace, monospace">$3,378.81</text><line x1="36" y1="167" x2="668" y2="167" stroke="#f4f4f5"/><text x="36" y="186" font-size="12" fill="#171717">Network energy (peak) <tspan font-size="8" fill="#cbd5e1">NETWORK</tspan></text><text x="668" y="186" font-size="12" fill="#171717" text-anchor="end" font-family="ui-monospace, monospace">$1,552.79</text><line x1="36" y1="197" x2="668" y2="197" stroke="#f4f4f5"/><text x="36" y="216" font-size="12" fill="#171717">Network energy (shoulder) <tspan font-size="8" fill="#cbd5e1">NETWORK</tspan></text><text x="668" y="216" font-size="12" fill="#171717" text-anchor="end" font-family="ui-monospace, monospace">$18,508.61</text><line x1="36" y1="227" x2="668" y2="227" stroke="#f4f4f5"/><text x="36" y="246" font-size="12" fill="#171717">Network energy (off-peak) <tspan font-size="8" fill="#cbd5e1">NETWORK</tspan></text><text x="668" y="246" font-size="12" fill="#171717" text-anchor="end" font-family="ui-monospace, monospace">$1,885.45</text><line x1="36" y1="257" x2="668" y2="257" stroke="#f4f4f5"/><text x="36" y="276" font-size="12" fill="#171717">Network demand (peak) <tspan font-size="8" fill="#cbd5e1">NETWORK</tspan></text><text x="668" y="276" font-size="12" fill="#171717" text-anchor="end" font-family="ui-monospace, monospace">$34,550.74</text><line x1="36" y1="287" x2="668" y2="287" stroke="#f4f4f5"/><text x="36" y="306" font-size="12" fill="#171717">Network demand (shoulder) <tspan font-size="8" fill="#cbd5e1">NETWORK</tspan></text><text x="668" y="306" font-size="12" fill="#171717" text-anchor="end" font-family="ui-monospace, monospace">$11,389.80</text><line x1="36" y1="317" x2="668" y2="317" stroke="#f4f4f5"/><text x="36" y="336" font-size="12" fill="#171717">Retail supply charge (estimated) <tspan font-size="8" fill="#cbd5e1">RETAIL</tspan></text><text x="668" y="336" font-size="12" fill="#171717" text-anchor="end" font-family="ui-monospace, monospace">$401.50</text><line x1="36" y1="347" x2="668" y2="347" stroke="#f4f4f5"/><text x="36" y="366" font-size="12" fill="#171717">Retail energy peak (estimated) <tspan font-size="8" fill="#cbd5e1">RETAIL</tspan></text><text x="668" y="366" font-size="12" fill="#171717" text-anchor="end" font-family="ui-monospace, monospace">$13,243.40</text><line x1="36" y1="377" x2="668" y2="377" stroke="#f4f4f5"/><text x="36" y="396" font-size="12" fill="#171717">Retail energy shoulder (estimated) <tspan font-size="8" fill="#cbd5e1">RETAIL</tspan></text><text x="668" y="396" font-size="12" fill="#171717" text-anchor="end" font-family="ui-monospace, monospace">$62,804.93</text><line x1="36" y1="407" x2="668" y2="407" stroke="#f4f4f5"/><text x="36" y="426" font-size="12" fill="#171717">Retail energy off-peak (estimated) <tspan font-size="8" fill="#cbd5e1">RETAIL</tspan></text><text x="668" y="426" font-size="12" fill="#171717" text-anchor="end" font-family="ui-monospace, monospace">$6,953.10</text><line x1="20" y1="448" x2="684" y2="448" stroke="#e4e4e7"/><text x="36" y="466" font-size="12" font-weight="600" fill="#52525b">Network $71,266 · Retail $83,403</text><text x="668" y="466" font-size="15" font-weight="700" fill="#171717" text-anchor="end" font-family="ui-monospace, monospace">$154,669.12</text><text x="20" y="502" font-size="14" font-weight="700" fill="#171717">Bills &amp; reconciliation</text><text x="20" y="519" font-size="10.5" fill="#a1a1aa">Billed total (ex-GST) compared to cost modelled from interval data on the same tariff.</text><rect x="20" y="530" width="664" height="156" rx="8" fill="#fff" stroke="#e4e4e7"/><text x="36" y="552" font-size="12" fill="#171717">2024-07-01 → 2025-06-30 · Origin</text><text x="668" y="552" font-size="11" font-weight="700" fill="#b45309" text-anchor="end">Review</text><text x="36" y="569" font-size="10.5" fill="#71717a">Billed $164,200.00 · Modelled $154,669.12 · Variance $9,530.88 (6.2%)</text><line x1="20" y1="582" x2="684" y2="582" stroke="#f1f1f3"/><text x="36" y="604" font-size="12" fill="#171717">2025-01-01 → 2025-01-31 · Origin</text><text x="668" y="604" font-size="11" font-weight="700" fill="#15803d" text-anchor="end">Matches model</text><text x="36" y="621" font-size="10.5" fill="#71717a">Billed $14,980.00 · Modelled $14,772.40 · Variance $207.60 (1.4%)</text><line x1="20" y1="634" x2="684" y2="634" stroke="#f1f1f3"/><text x="36" y="656" font-size="12" fill="#171717">2024-12-01 → 2024-12-31 · Origin</text><text x="668" y="656" font-size="11" font-weight="700" fill="#b91c1c" text-anchor="end">Investigate</text><text x="36" y="673" font-size="10.5" fill="#71717a">Billed $19,420.00 · Modelled $13,910.55 · Variance $5,509.45 (39.6%)</text><rect x="20" y="702" width="664" height="86" rx="8" fill="#fafafa" stroke="#e4e4e7"/><text x="36" y="726" font-size="12" font-weight="600" fill="#3f3f46">Add bill &amp; reconcile</text><rect x="36" y="736" width="300" height="26" rx="5" fill="#fff" stroke="#d4d4d8"/><text x="46" y="753" font-size="10.5" fill="#a1a1aa">Retailer · period · billed total (ex-GST)</text><rect x="560" y="736" width="110" height="26" rx="5" fill="#171717"/><text x="615" y="753" font-size="11" font-weight="600" fill="#fff" text-anchor="middle">Reconcile</text></g><text x="28" y="850" font-size="10.5" fill="#a1a1aa" font-style="italic">Mockup. Network rates from the Energex 2026-27 Price List; retail estimated. Engine verified on the real file ($154,669/yr) + 7 unit tests.</text></svg>