<svg xmlns="http://www.w3.org/2000/svg" width="1180" height="560" viewBox="0 0 1180 560" font-family="ui-sans-serif, system-ui, -apple-system, Segoe UI, Roboto, Helvetica, Arial"><rect width="1180" height="560" fill="#f4f4f5"/><text x="28" y="34" font-size="18" font-weight="700" fill="#171717">NEMS Insight — Phase 5: portfolio rollup &amp; drill-down</text><rect x="28" y="58" width="360" height="470" rx="10" fill="#fff" stroke="#e4e4e7"/><text x="44" y="82" font-size="11" font-weight="600" fill="#a1a1aa">1 · /  Portfolio</text><line x1="28" y1="92" x2="388" y2="92" stroke="#ededf0"/><text x="44" y="82" font-size="13" font-weight="700" fill="#171717">NEMS Insight</text><text x="44" y="120" font-size="16" font-weight="700" fill="#171717">Portfolio</text><text x="44" y="138" font-size="11" fill="#a1a1aa">4 clients · 3 with data · 2.41 GWh total consumption</text><text x="44" y="166" font-size="12" font-weight="600" fill="#3f3f46">Clients</text><rect x="44" y="176" width="328" height="34" rx="6" fill="#fff" stroke="#eee"/><text x="56" y="198" font-size="12" fill="#171717" >Acme Manufacturing Pty Ltd</text><text x="360" y="198" font-size="11" fill="#71717a" text-anchor="end">827 MWh →</text><rect x="44" y="218" width="328" height="34" rx="6" fill="#fff" stroke="#eee"/><text x="56" y="240" font-size="12" fill="#171717" >Brisbane Cold Storage</text><text x="360" y="240" font-size="11" fill="#71717a" text-anchor="end">1.4 GWh →</text><rect x="44" y="260" width="328" height="34" rx="6" fill="#fff" stroke="#eee"/><text x="56" y="282" font-size="12" fill="#171717" >Sunstate Plastics</text><text x="360" y="282" font-size="11" fill="#71717a" text-anchor="end">184 MWh →</text><rect x="44" y="302" width="328" height="34" rx="6" fill="#fff" stroke="#eee"/><text x="56" y="324" font-size="12" fill="#171717" >Coastal Foods</text><text x="360" y="324" font-size="11" fill="#71717a" text-anchor="end">prospect</text><text x="396" y="258" font-size="22" fill="#cbd5e1">→</text><rect x="414" y="58" width="360" height="470" rx="10" fill="#fff" stroke="#e4e4e7"/><text x="430" y="82" font-size="11" font-weight="600" fill="#a1a1aa">2 · /clients/[id]  Sites</text><line x1="414" y1="92" x2="774" y2="92" stroke="#ededf0"/><text x="430" y="82" font-size="13" font-weight="700" fill="#171717">NEMS Insight</text><text x="430" y="120" font-size="16" font-weight="700" fill="#171717">Acme Manufacturing Pty Ltd</text><text x="430" y="138" font-size="11" fill="#a1a1aa">ABN 12 345 678 901 · active · 827 MWh across 2 sites</text><text x="430" y="166" font-size="12" font-weight="600" fill="#3f3f46">Sites</text><rect x="430" y="176" width="328" height="34" rx="6" fill="#fff" stroke="#eee"/><text x="442" y="198" font-size="12" fill="#171717" >Acme Brisbane Plant</text><text x="746" y="198" font-size="11" fill="#71717a" text-anchor="end">827 MWh · Energex · QLD</text><rect x="430" y="218" width="328" height="34" rx="6" fill="#fff" stroke="#eee"/><text x="442" y="240" font-size="12" fill="#171717" >Acme Toowoomba DC</text><text x="746" y="240" font-size="11" fill="#71717a" text-anchor="end">no data · Energex · QLD</text><text x="782" y="258" font-size="22" fill="#cbd5e1">→</text><rect x="800" y="58" width="352" height="470" rx="10" fill="#fff" stroke="#e4e4e7"/><text x="816" y="82" font-size="11" font-weight="600" fill="#a1a1aa">3 · /sites/[id]  Metering points</text><line x1="800" y1="92" x2="1152" y2="92" stroke="#ededf0"/><text x="816" y="82" font-size="13" font-weight="700" fill="#171717">NEMS Insight</text><text x="816" y="120" font-size="16" font-weight="700" fill="#171717">Acme Brisbane Plant</text><text x="816" y="138" font-size="11" fill="#a1a1aa">10 Factory Rd, Brisbane QLD · Energex · 827 MWh total</text><text x="816" y="166" font-size="12" font-weight="600" fill="#3f3f46">Metering points (NMIs)</text><rect x="816" y="176" width="320" height="34" rx="6" fill="#fff" stroke="#eee"/><text x="828" y="198" font-size="12" fill="#171717" font-family="ui-monospace, monospace">6123456789</text><text x="1124" y="198" font-size="11" fill="#71717a" text-anchor="end">827 MWh →</text><rect x="816" y="218" width="320" height="34" rx="6" fill="#fff" stroke="#eee"/><text x="828" y="240" font-size="12" fill="#171717" font-family="ui-monospace, monospace">6123456790</text><text x="1124" y="240" font-size="11" fill="#71717a" text-anchor="end">no data yet</text><text x="816" y="308" font-size="11" fill="#a1a1aa" font-style="italic">→ NMI opens the Phase 3 analytics view</text><text x="28" y="546" font-size="10.5" fill="#a1a1aa" font-style="italic">Mockup. Rollups computed by RLS-respecting Postgres views — verified on Postgres (totals correct, tenants isolated).</text></svg>